<svg width="1444" height="175" viewBox="0 0 1444 175" fill="none" xmlns="http://www.w3.org/2000/svg">
<g filter="url(#filter0_d)">
<path d="M48.448 137L23.68 56.36H23.104C23.2 58.28 23.344 61.16 23.536 65C23.728 68.84 23.92 72.968 24.112 77.384C24.304 81.704 24.4 85.64 24.4 89.192V137H4.96V34.184H34.624L58.96 112.808H59.392L85.168 34.184H114.832V137H94.528V88.328C94.528 85.064 94.576 81.32 94.672 77.096C94.864 72.872 95.008 68.888 95.104 65.144C95.296 61.304 95.44 58.424 95.536 56.504H94.96L68.464 137H48.448Z" fill="#FF0633"/>
<path d="M203.732 137L196.244 112.52H158.804L151.316 137H127.844L164.132 33.752H190.772L227.204 137H203.732ZM183.572 70.328C183.092 68.696 182.468 66.632 181.7 64.136C180.932 61.64 180.164 59.096 179.396 56.504C178.628 53.912 178.004 51.656 177.524 49.736C177.044 51.656 176.372 54.056 175.508 56.936C174.74 59.72 173.972 62.408 173.204 65C172.532 67.496 172.004 69.272 171.62 70.328L164.276 94.232H191.06L183.572 70.328Z" fill="#AFFF06"/>
<path d="M305.17 34.184V52.184H261.97V137H240.226V34.184H305.17Z" fill="#FF7D04"/>
<path d="M383.872 137L376.384 112.52H338.944L331.456 137H307.984L344.272 33.752H370.912L407.344 137H383.872ZM363.712 70.328C363.232 68.696 362.608 66.632 361.84 64.136C361.072 61.64 360.304 59.096 359.536 56.504C358.768 53.912 358.144 51.656 357.664 49.736C357.184 51.656 356.512 54.056 355.648 56.936C354.88 59.72 354.112 62.408 353.344 65C352.672 67.496 352.144 69.272 351.76 70.328L344.416 94.232H371.2L363.712 70.328Z" fill="#FFE600"/>
<path d="M491.358 58.232C491.358 65.144 488.91 70.712 484.014 74.936C479.118 79.16 472.878 81.8 465.294 82.856V83.288C474.702 84.248 481.902 86.888 486.894 91.208C491.982 95.432 494.526 100.952 494.526 107.768C494.526 116.792 490.83 124.184 483.438 129.944C476.142 135.608 465.39 138.44 451.182 138.44C443.406 138.44 436.494 137.96 430.446 137C424.494 136.04 419.31 134.648 414.894 132.824V114.536C417.87 115.976 421.23 117.224 424.974 118.28C428.718 119.24 432.51 120.008 436.35 120.584C440.19 121.064 443.742 121.304 447.006 121.304C456.126 121.304 462.702 120.008 466.734 117.416C470.862 114.728 472.926 110.984 472.926 106.184C472.926 101.288 469.95 97.736 463.998 95.528C458.046 93.224 450.03 92.072 439.95 92.072H430.302V75.08H438.942C447.102 75.08 453.438 74.552 457.95 73.496C462.462 72.44 465.63 70.904 467.454 68.888C469.278 66.872 470.19 64.472 470.19 61.688C470.19 58.136 468.606 55.352 465.438 53.336C462.366 51.224 457.71 50.168 451.47 50.168C446.19 50.168 441.198 50.936 436.494 52.472C431.886 54.008 427.566 56.024 423.534 58.52L414.03 43.976C419.31 40.52 425.166 37.784 431.598 35.768C438.03 33.752 445.662 32.744 454.494 32.744C466.11 32.744 475.134 35.144 481.566 39.944C488.094 44.744 491.358 50.84 491.358 58.232Z" fill="#11FFC6"/>
<path d="M513.741 34.184H533.325V83.864C533.325 86.264 533.277 88.952 533.181 91.928C533.085 94.904 532.989 97.832 532.893 100.712C532.797 103.496 532.701 105.944 532.605 108.056C532.509 110.072 532.413 111.464 532.317 112.232H532.749L580.269 34.184H606.333V137H586.893V87.608C586.893 85.016 586.941 82.184 587.037 79.112C587.133 75.944 587.229 72.92 587.325 70.04C587.517 67.16 587.661 64.664 587.757 62.552C587.949 60.344 588.093 58.904 588.189 58.232H587.613L539.949 137H513.741V34.184Z" fill="#8BC610"/>
<path d="M716.528 137H694.784V92.648H654.032V137H632.288V34.184H654.032V74.504H694.784V34.184H716.528V137Z" fill="#F804FD"/>
<path d="M795.458 50.888C790.85 50.888 786.29 51.56 781.778 52.904C777.266 54.152 772.85 55.688 768.53 57.512L761.618 39.944C766.706 37.736 772.082 36.008 777.746 34.76C783.41 33.416 789.458 32.744 795.89 32.744C811.058 32.744 822.818 37.4 831.17 46.712C839.522 55.928 843.698 68.936 843.698 85.736C843.698 96.296 841.922 105.56 838.37 113.528C834.818 121.4 829.346 127.544 821.954 131.96C814.658 136.28 805.298 138.44 793.874 138.44C788.018 138.44 782.69 138.008 777.89 137.144C773.186 136.28 768.386 134.936 763.49 133.112V114.824C768.962 116.552 774.002 117.896 778.61 118.856C783.314 119.816 787.97 120.296 792.578 120.296C801.41 120.296 808.226 118.136 813.026 113.816C817.826 109.4 820.418 102.824 820.802 94.088H776.162V76.232H820.658C820.37 68.264 817.97 62.072 813.458 57.656C808.946 53.144 802.946 50.888 795.458 50.888Z" fill="#FC1616"/>
<path d="M908.511 137L883.743 56.36H883.167C883.263 58.28 883.407 61.16 883.599 65C883.791 68.84 883.983 72.968 884.175 77.384C884.367 81.704 884.463 85.64 884.463 89.192V137H865.023V34.184H894.687L919.023 112.808H919.455L945.231 34.184H974.895V137H954.591V88.328C954.591 85.064 954.639 81.32 954.735 77.096C954.927 72.872 955.071 68.888 955.167 65.144C955.359 61.304 955.503 58.424 955.599 56.504H955.023L928.527 137H908.511Z" fill="#F9FE07"/>
<path d="M1094.18 85.448C1094.18 96.104 1092.4 105.416 1088.85 113.384C1085.39 121.256 1080.07 127.4 1072.87 131.816C1065.67 136.232 1056.45 138.44 1045.22 138.44C1034.08 138.44 1024.87 136.232 1017.57 131.816C1010.37 127.4 1004.99 121.208 1001.44 113.24C997.986 105.272 996.258 95.96 996.258 85.304C996.258 74.648 997.986 65.384 1001.44 57.512C1004.99 49.64 1010.37 43.544 1017.57 39.224C1024.87 34.808 1034.13 32.6 1045.36 32.6C1056.5 32.6 1065.67 34.808 1072.87 39.224C1080.07 43.544 1085.39 49.688 1088.85 57.656C1092.4 65.528 1094.18 74.792 1094.18 85.448ZM1019.15 85.448C1019.15 96.2 1021.22 104.696 1025.35 110.936C1029.47 117.08 1036.1 120.152 1045.22 120.152C1054.53 120.152 1061.2 117.08 1065.23 110.936C1069.27 104.696 1071.28 96.2 1071.28 85.448C1071.28 74.6 1069.27 66.104 1065.23 59.96C1061.2 53.816 1054.58 50.744 1045.36 50.744C1036.15 50.744 1029.47 53.816 1025.35 59.96C1021.22 66.104 1019.15 74.6 1019.15 85.448Z" fill="#4200FF"/>
<path d="M1212.1 119.72V166.952H1191.08V137H1115.48V34.184H1137.22V118.856H1175.09V34.184H1196.84V119.72H1212.1Z" fill="#93FF09"/>
<path d="M1227.98 34.184H1247.56V83.864C1247.56 86.264 1247.51 88.952 1247.42 91.928C1247.32 94.904 1247.22 97.832 1247.13 100.712C1247.03 103.496 1246.94 105.944 1246.84 108.056C1246.74 110.072 1246.65 111.464 1246.55 112.232H1246.98L1294.5 34.184H1320.57V137H1301.13V87.608C1301.13 85.016 1301.18 82.184 1301.27 79.112C1301.37 75.944 1301.46 72.92 1301.56 70.04C1301.75 67.16 1301.9 64.664 1301.99 62.552C1302.18 60.344 1302.33 58.904 1302.42 58.232H1301.85L1254.18 137H1227.98V34.184Z" fill="#FF9900"/>
<path d="M1429.32 0.343991C1428.84 5.336 1427.45 9.752 1425.15 13.592C1422.84 17.336 1419.24 20.264 1414.35 22.376C1409.45 24.488 1402.87 25.544 1394.62 25.544C1386.17 25.544 1379.55 24.536 1374.75 22.52C1370.04 20.408 1366.68 17.48 1364.67 13.736C1362.65 9.99199 1361.45 5.52799 1361.07 0.343991H1380.22C1380.7 5.62399 1382.04 9.12799 1384.25 10.856C1386.46 12.584 1390.06 13.448 1395.05 13.448C1399.18 13.448 1402.54 12.536 1405.13 10.712C1407.82 8.792 1409.4 5.336 1409.88 0.343991H1429.32ZM1346.52 34.184H1366.11V83.864C1366.11 86.264 1366.06 88.952 1365.96 91.928C1365.87 94.904 1365.77 97.832 1365.67 100.712C1365.58 103.496 1365.48 105.944 1365.39 108.056C1365.29 110.072 1365.19 111.464 1365.1 112.232H1365.53L1413.05 34.184H1439.11V137H1419.67V87.608C1419.67 85.016 1419.72 82.184 1419.82 79.112C1419.91 75.944 1420.01 72.92 1420.11 70.04C1420.3 67.16 1420.44 64.664 1420.54 62.552C1420.73 60.344 1420.87 58.904 1420.97 58.232H1420.39L1372.73 137H1346.52V34.184Z" fill="#00FF85"/>
</g>
<defs>
<filter id="filter0_d" x="0.959991" y="0.34399" width="1442.15" height="174.608" filterUnits="userSpaceOnUse" color-interpolation-filters="sRGB">
<feFlood flood-opacity="0" result="BackgroundImageFix"/>
<feColorMatrix in="SourceAlpha" type="matrix" values="0 0 0 0 0 0 0 0 0 0 0 0 0 0 0 0 0 0 127 0"/>
<feOffset dy="4"/>
<feGaussianBlur stdDeviation="2"/>
<feColorMatrix type="matrix" values="0 0 0 0 0 0 0 0 0 0 0 0 0 0 0 0 0 0 0.25 0"/>
<feBlend mode="normal" in2="BackgroundImageFix" result="effect1_dropShadow"/>
<feBlend mode="normal" in="SourceGraphic" in2="effect1_dropShadow" result="shape"/>
</filter>
</defs>
</svg>
